<svg width="14" height="14" viewBox="0 0 14 14" fill="none" xmlns="http://www.w3.org/2000/svg">
<path d="M13.8549 7.28571C13.8549 3.5 10.7835 0.428571 6.99777 0.428571C3.21205 0.428571 0.140625 3.5 0.140625 7.28571C0.140625 10.0982 1.82813 12.5089 4.24777 13.5714C4.22991 13.0893 4.23884 12.5089 4.36384 11.9911C4.36384 11.9911 4.49777 11.4375 5.24777 8.25893C5.02455 7.82143 5.02455 7.16964 5.02455 7.16964C5.02455 6.15179 5.61384 5.39286 6.34598 5.39286C6.97098 5.39286 7.27455 5.86607 7.27455 6.42857C7.27455 7.05357 6.87277 7.99107 6.66741 8.85714C6.49777 9.58929 7.03348 10.1786 7.74777 10.1786C9.05134 10.1786 9.92634 8.50893 9.92634 6.53571C9.92634 5.02679 8.90848 3.90178 7.0692 3.90178C4.98884 3.90178 3.6942 5.45536 3.6942 7.1875C3.6942 7.78571 3.87277 8.20536 4.14955 8.53571C4.27455 8.6875 4.29241 8.74107 4.24777 8.91964C4.21205 9.04464 4.14062 9.34821 4.10491 9.46429C4.06027 9.64286 3.91741 9.70536 3.76563 9.64286C2.81027 9.25 2.36384 8.19643 2.36384 7.01786C2.36384 5.07143 4.0067 2.73214 7.2567 2.73214C9.8817 2.73214 11.6049 4.63393 11.6049 6.66071C11.6049 9.35714 10.1049 11.3661 7.89955 11.3661C7.15848 11.3661 6.46205 10.9643 6.22991 10.5089C5.82813 12.0893 5.74777 12.3929 5.74777 12.3929C5.60491 12.9196 5.31027 13.4464 5.05134 13.8571C5.67634 14.0446 6.3192 14.1429 6.99777 14.1429C10.7835 14.1429 13.8549 11.0714 13.8549 7.28571Z" fill="#E8E8E8"/>
</svg>
